<?xml version="1.0" standalone="no"?>
<!DOCTYPE svg PUBLIC "-//W3C//DTD SVG 1.1//EN" "http://www.w3.org/Graphics/SVG/1.1/DTD/svg11.dtd" >
<svg xmlns="http://www.w3.org/2000/svg">
<metadata>Generated by IcoMoon</metadata>
<defs>
<font id="dm-icons" horiz-adv-x="1024">
<font-face units-per-em="1024" ascent="960" descent="-64" />
<missing-glyph horiz-adv-x="1024" />
<glyph unicode="&#x20;" d="" horiz-adv-x="512" />
<glyph unicode="&#xe600;" d="M510.208 880.105c-198.861 0-360.090-161.229-360.090-360.090 0-78.694 19.712-151.808 59.034-211.302 75.418-101.581 177.306-190.31 279.194-269.875 5.888-5.069 13.466-8.192 21.862-8.192 9.062 0 17.306 3.635 23.296 9.523 0.102 0.051 0.205 0.102 0.307 0.205 107.776 85.555 204.442 181.299 284.109 292.813 33.178 54.477 52.378 118.374 52.378 186.778 0 198.912-161.229 360.141-360.090 360.141zM511.283 290.741c-125.133 0-226.56 101.427-226.56 226.56s101.427 226.56 226.56 226.56c125.133 0 226.56-101.427 226.56-226.56s-101.427-226.56-226.56-226.56z" />
<glyph unicode="&#xe601;" d="M419.994 882.972c-198.298 0-359.117-160.768-359.117-359.117s160.768-359.117 359.117-359.117 359.117 160.768 359.117 359.117-160.768 359.117-359.117 359.117zM419.994 269.801c-140.288 0-254.054 113.715-254.054 254.054s113.715 254.054 254.054 254.054 254.054-113.715 254.054-254.054-113.715-254.054-254.054-254.054zM949.606 68.994l-150.118 150.118c-20.634 20.634-54.118 20.634-74.752 0s-20.634-54.118 0-74.752l150.118-150.118c20.634-20.634 54.118-20.634 74.752 0s20.634 54.118 0 74.752z" />
<glyph unicode="&#xe602;" d="M1024 33.871c0-62.225-50.415-112.64-112.64-112.64h-798.72c-62.225 0-112.64 50.415-112.64 112.64v798.72c0 62.225 50.415 112.64 112.64 112.64h798.72c62.225 0 112.64-50.415 112.64-112.64v-798.72zM237.056 784.565c55.125 0 99.977-44.851 99.977-99.977s-44.851-99.977-99.977-99.977-99.977 44.885-99.977 100.011 44.851 99.942 99.977 99.942zM237.056 799.925c-63.693 0-115.337-51.644-115.337-115.337s51.644-115.337 115.337-115.337c63.693 0 115.337 51.644 115.337 115.337s-51.644 115.337-115.337 115.337v0zM237.056 274.306c55.125 0 99.977-44.851 99.977-99.977s-44.851-99.977-99.977-99.977-99.977 44.851-99.977 99.977 44.851 99.977 99.977 99.977zM237.056 289.666c-63.693 0-115.337-51.644-115.337-115.337s51.644-115.337 115.337-115.337c63.693 0 115.337 51.644 115.337 115.337s-51.644 115.337-115.337 115.337v0zM237.056 533.208c55.125 0 99.977-44.851 99.977-99.977s-44.851-99.977-99.977-99.977-99.977 44.851-99.977 99.977 44.851 99.977 99.977 99.977zM237.056 548.568c-63.693 0-115.337-51.644-115.337-115.337s51.644-115.337 115.337-115.337c63.693 0 115.337 51.644 115.337 115.337s-51.644 115.337-115.337 115.337v0zM509.986 784.565c55.125 0 99.977-44.851 99.977-99.977s-44.851-99.977-99.977-99.977-99.977 44.851-99.977 99.977 44.851 99.977 99.977 99.977zM509.986 799.925c-63.693 0-115.337-51.644-115.337-115.337s51.644-115.337 115.337-115.337c63.693 0 115.337 51.644 115.337 115.337s-51.644 115.337-115.337 115.337v0zM509.986 274.306c55.125 0 99.977-44.851 99.977-99.977s-44.851-99.977-99.977-99.977-99.977 44.851-99.977 99.977 44.851 99.977 99.977 99.977zM509.986 289.666c-63.693 0-115.337-51.644-115.337-115.337s51.644-115.337 115.337-115.337c63.693 0 115.337 51.644 115.337 115.337s-51.644 115.337-115.337 115.337v0zM625.323 433.231c0-63.699-51.638-115.337-115.337-115.337s-115.337 51.638-115.337 115.337c0 63.699 51.638 115.337 115.337 115.337s115.337-51.638 115.337-115.337zM897.058 684.623c0-63.699-51.638-115.337-115.337-115.337s-115.337 51.638-115.337 115.337c0 63.699 51.638 115.337 115.337 115.337s115.337-51.638 115.337-115.337zM897.058 174.364c0-63.699-51.638-115.337-115.337-115.337s-115.337 51.638-115.337 115.337c0 63.699 51.638 115.337 115.337 115.337s115.337-51.638 115.337-115.337zM897.058 433.231c0-63.699-51.638-115.337-115.337-115.337s-115.337 51.638-115.337 115.337c0 63.699 51.638 115.337 115.337 115.337s115.337-51.638 115.337-115.337z" />
<glyph unicode="&#xe603;" d="M884.378 720.463c0 28.723-23.296 52.019-52.019 52.019-0.666 0-1.28-0.051-1.946-0.102-0.666 0.051-1.28 0.102-1.946 0.102h-49.766c-18.432 0-33.382-14.95-33.382-33.382s14.95-33.382 33.382-33.382h3.84c0.154-0.512 0.256-1.024 0.461-1.536h14.387c10.291 0 18.637-8.346 18.637-18.637v-14.438c0 0 0.051 0 0.051 0v-539.443c0.102-0.87 0.256-1.69 0.256-2.56v-79.053c0-10.291-8.346-18.637-18.637-18.637h-54.323c-0.051 0-0.102 0-0.205 0h-432.026c-0.307 0-0.614-0.102-0.973-0.102h-79.053c-10.291 0-18.637 8.346-18.637 18.637v636.006c0 9.011 6.4 16.486 14.848 18.227h17.715c18.432 0 33.382 14.95 33.382 33.382s-14.95 33.382-33.382 33.382h-49.766c-2.509 0-4.915-0.307-7.219-0.819-23.501-4.045-41.523-23.808-43.008-48.077-0.614-2.509-0.922-5.171-0.922-7.885v-682.24c0-2.509 0.307-4.966 0.819-7.322 0-0.051 0-0.102 0-0.154-0.051-28.723 23.245-52.019 52.019-52.019 2.202 0 4.403 0.205 6.502 0.461 1.69-0.307 3.379-0.461 5.12-0.461h617.421c0.922 0 1.843 0.051 2.765 0.154 0.87-0.051 1.741-0.154 2.662-0.154 28.723 0 52.019 23.296 52.019 52.019 0 0.051 0 0.102 0 0.102 0.614 2.611 0.973 5.274 0.973 8.090v682.189c0 0.973-0.051 1.894-0.154 2.816 0.051 0.922 0.102 1.894 0.102 2.816zM343.859 704.233h334.694c10.291 0 18.637 8.346 18.637 18.637v0 51.968c0 18.432-14.95 33.382-33.382 33.382h-52.992v33.178c0 0.051 0 0.102 0 0.205 0 18.432-14.95 33.382-33.382 33.382h-133.53c-18.432 0-33.382-14.95-33.382-33.382v-33.331h-51.917c-18.432 0-33.382-14.95-33.382-33.382v-52.019c0-10.342 8.346-18.637 18.637-18.637zM343.91 503.938h333.722c18.432 0 33.382 14.95 33.382 33.382s-14.95 33.382-33.382 33.382h-333.722c-18.432 0-33.382-14.95-33.382-33.382s14.899-33.382 33.382-33.382zM343.91 333.186h333.722c18.432 0 33.382 14.95 33.382 33.382s-14.95 33.382-33.382 33.382h-333.722c-18.432 0-33.382-14.95-33.382-33.382s14.95-33.382 33.382-33.382zM343.91 170.268h333.722c18.432 0 33.382 14.95 33.382 33.382s-14.95 33.382-33.382 33.382h-333.722c-18.432 0-33.382-14.95-33.382-33.382s14.899-33.382 33.382-33.382z" />
<glyph unicode="&#xe604;" d="M699.648 657.18c0-103.635-84.013-187.648-187.648-187.648s-187.648 84.013-187.648 187.648c0 103.635 84.013 187.648 187.648 187.648s187.648-84.013 187.648-187.648zM691.149 411.983c-14.029 10.496-31.386 16.845-50.278 16.845-13.466 0-26.112-3.226-37.376-8.858-1.587-0.307-3.072-0.717-4.198-1.075-27.238-9.83-56.627-15.206-87.245-15.206-33.178 0-64.87 6.298-93.952 17.766-0.87 0.358-1.997 0.614-3.277 0.87-10.035 4.198-20.992 6.554-32.563 6.554-21.658 0-41.37-8.294-56.269-21.76-79.002-57.498-130.355-150.63-130.355-255.795 0-12.698 0.819-25.242 2.304-37.581 91.29-51.558 196.762-81.050 309.146-81.050 116.787 0 226.099 31.846 319.846 87.245 1.024 10.342 1.536 20.787 1.536 31.386-0.051 108.186-54.426 203.622-137.318 260.659z" />
<glyph unicode="&#xe605;" d="M926.72 617.244c-2.048 57.242-48.947 103.27-106.496 103.885-14.131 0.87-169.114 10.394-308.070 10.394s-294.144-9.523-308.275-10.394c-58.419-0.614-105.779-47.872-106.65-106.138-0.973-12.186-7.782-97.28-7.782-181.248s6.81-169.011 7.834-181.197c0.87-58.317 48.282-105.626 106.65-106.189 14.182-0.819 184.934-10.394 308.070-10.394s293.888 9.574 308.070 10.394c57.651 0.563 104.602 46.592 106.65 103.885 2.867 15.514 7.885 60.109 7.885 183.501-0.051 123.392-5.018 168.038-7.885 183.501zM638.362 417.205l-181.862-106.65c-3.174-1.843-6.861-2.765-10.445-2.765-3.43 0-6.861 0.819-9.933 2.509-6.349 3.43-10.291 9.882-10.291 16.794v213.35c0 6.963 3.942 13.363 10.291 16.794s14.131 3.328 20.378-0.307l181.862-106.65c6.042-3.482 9.779-9.779 9.779-16.538s-3.738-13.005-9.779-16.538z" />
<glyph unicode="&#xe606;" d="M680.192 882.357h-498.534c-29.338 0-45.517-20.429-45.517-49.818v-803.328c0-29.389 17.152-50.944 47.77-50.944h651.571c28.979 0 44.493 21.555 44.493 50.944v603.904l-199.782 249.242zM812.902 603.829v-558.285l-609.587 0.051-0.051 18.739v750.746h444.774l0.051-205.21 164.71 0.154v-6.195zM569.549 545.973c-1.946 44.493-3.021 49.613-14.746 65.126-14.694 19.405-34.509 29.286-58.675 30.054-19.661 0.614-37.222-5.837-51.814-18.944-22.63-20.275-28.672-46.336-23.603-76.39-50.227 31.795-96.358 24.883-120.269-17.306-12.134-21.453-13.414-43.93-3.84-66.867 9.626-23.040 27.648-36.71 51.814-44.698-55.347-18.278-68.352-70.861-50.227-107.674 22.016-44.902 69.734-53.658 122.47-21.504-3.789-23.91-1.331-45.875 13.466-65.075 15.155-19.61 35.123-29.645 59.853-30.003 19.763-0.307 37.12 6.246 51.558 19.61 21.914 20.275 27.853 45.978 22.835 75.571 50.176-31.437 95.437-24.934 119.501 16.384 12.646 21.709 14.234 44.493 4.506 67.84-9.626 22.989-27.648 36.659-51.814 44.8 33.792 11.571 54.323 33.126 57.446 67.686 2.714 30.259-9.472 54.886-35.686 70.656-32.563 19.661-63.693 14.029-92.774-9.267zM495.565 336.924c-43.366-0.973-79.36 33.69-81.050 77.978-1.69 43.571 33.536 80.384 78.285 81.92 43.571 1.485 80.282-33.843 81.613-78.541 1.331-43.52-34.406-80.384-78.848-81.357z" />
<glyph unicode="&#xe607;" d="M960 261.045c-42.342-28.672-127.334-65.587-258.406-32.614-12.544 3.226-24.525 6.451-36.045 9.984-82.739 35.789-166.81 74.496-200.806 99.738 94.874-14.848 236.902-29.389 465.818 7.424 0 0 21.555-34.048 29.44-84.531zM70.144 238.057l-39.936-14.080c0 0 45.568-54.272 53.555-72.141l11.162-30.822c0 0 144.538 79.565 354.816 67.584 47.718-2.714 89.6-16.538 89.6-16.538s-85.658 55.91-102.861 61.338c-82.483 20.582-160.973 26.624-207.411 28.314-79.616-21.146-147.558-57.549-147.558-57.549s-5.478 16.486-11.366 33.894zM992.205 288.028c0 0-10.65-12.442-32.205-26.982-42.342-28.672-127.334-65.587-258.406-32.614-12.544 3.226-24.474 6.451-36.045 9.933-119.603 35.123-190.669 80.486-351.078 100.198-108.698-2.662-218.88-15.411-279.142-39.322 0 0 16.486-16.845 21.299-23.859 2.458-5.222 8.141-21.555 13.466-37.325 5.888-17.408 11.418-33.946 11.418-33.946s67.942 36.403 147.558 57.549c37.376 9.984 77.414 16.64 114.074 14.49 122.368-7.731 221.133-70.963 330.598-122.419 75.981-21.248 261.222-37.325 313.446-13.773 0 0 10.598 50.125 5.018 148.070zM355.789 566.146c-49.306 0-78.336-69.478-78.336-118.221 0-20.122 5.069-29.082 15.667-29.082 28.058 0 75.52 80.691 84.89 131.021l2.458 13.005c-6.861 1.587-14.643 3.277-24.678 3.277zM414.464 357.865h-72.141c3.226 18.995 9.421 40.141 19.507 68.25l-1.075-0.051c-22.733-38.093-54.989-74.65-95.949-74.65-41.882 0-62.925 27.034-62.925 83.712 0 99.738 51.814 191.078 167.885 191.078 6.298 0 12.646-0.563 22.733-2.099l11.674 60.979v0.41c-11.674 2.15-29.082 4.301-44.544 5.325l10.138 49.459c36.762 3.584 74.394 6.349 118.323 4.762l-73.626-387.174zM849.357 357.813h-71.782l26.010 161.843c5.376 26.522 1.536 36.557-10.547 36.557-24.422 0-68.506-64.512-78.592-127.693l-11.418-70.707h-71.68l26.829 161.843c5.274 26.522 1.638 36.557-10.547 36.557-24.422 0-67.277-63.642-79.053-126.157l-13.773-72.294-71.578 0.051 38.707 203.008v1.536c-11.674 2.099-29.133 4.301-44.544 5.325l10.086 49.408c38.144 4.198 74.24 6.349 113.971 4.762-4.198-20.634-11.162-44.442-20.173-67.789l1.126-0.051c23.859 40.806 49.357 72.192 96 72.192 31.283 0 51.558-16.435 51.558-51.968 0-6.4-1.587-13.21-4.198-23.808l0.563-0.512c24.371 43.981 53.914 76.339 100.454 76.339 51.456 0 61.901-37.12 52.326-86.426l-29.747-182.016z" />
<glyph unicode="&#xe608;" d="M843.674 845.289h-663.398c-31.846 0-43.52-18.074-43.52-43.52v-45.056c0-27.597 13.466-43.571 43.52-43.571h663.398c30.669 0 43.52 16.282 43.52 43.571v45.056c0 34.099-17.869 43.52-43.52 43.52zM573.952 647.759h-393.626c-31.846 0-43.52-18.074-43.52-43.52v-265.728c0-27.597 13.466-43.571 43.52-43.571h393.677c30.669 0 43.52 16.282 43.52 43.571v265.728c-0.051 34.099-17.92 43.52-43.571 43.52zM671.386 604.239v-118.63c0-27.597 13.466-43.571 43.52-43.571h123.955c30.669 0 43.52 16.282 43.52 43.571v118.63c0 34.048-17.869 43.52-43.52 43.52h-123.955c-31.846 0-43.52-18.074-43.52-43.52zM843.674 373.993h-123.904c-31.846 0-43.52-18.074-43.52-43.52v-265.728c0-27.597 13.466-43.571 43.52-43.571h123.955c30.669 0 43.52 16.282 43.52 43.571v265.728c-0.051 34.048-17.92 43.52-43.571 43.52zM304.23 226.844h-123.904c-31.846 0-43.52-18.074-43.52-43.52v-118.63c0-27.597 13.466-43.571 43.52-43.571h123.955c30.669 0 43.52 16.282 43.52 43.571v118.63c-0.051 34.099-17.92 43.52-43.571 43.52zM573.952 226.844h-123.904c-31.846 0-43.52-18.074-43.52-43.52v-118.63c0-27.597 13.466-43.571 43.52-43.571h123.955c30.669 0 43.52 16.282 43.52 43.571v118.63c-0.051 34.099-17.92 43.52-43.571 43.52z" />
<glyph unicode="&#xe609;" d="M757.811 393.5h-228.71v-393.216h228.71c25.395 0 35.994 13.466 35.994 35.994v321.229c0 28.211-14.797 35.994-35.994 35.994zM478.413 393.5h-228.71c-26.317 0-35.994-14.95-35.994-35.994v-321.229c0-22.835 11.162-35.994 35.994-35.994h228.71v393.216zM778.086 614.172h-248.934v-170.138h248.986c25.395 0 35.994 13.466 35.994 35.994v98.15c-0.051 28.16-14.848 35.994-36.045 35.994zM478.413 614.172h-249.037c-26.317 0-35.994-14.95-35.994-35.994v-98.099c0-22.835 11.162-35.994 35.994-35.994h248.986v170.086zM703.027 829.57c-25.651 24.269-52.326 36.557-79.206 36.557-47.309 0-88.678-37.069-119.654-107.162 0-0.051-0.256-0.563-0.461-1.024-0.154 0.512-0.358 1.024-0.41 1.075-30.976 70.093-72.346 107.162-119.654 107.162-26.88 0-53.555-12.339-80.026-37.376-45.517-46.438-37.376-89.037-28.416-110.336 30.208-71.987 149.965-112.589 203.213-119.194v14.899h50.688v-14.899c53.248 6.605 172.954 47.206 203.162 119.194 8.96 21.248 17.152 63.898-29.235 111.104zM331.264 742.018c-2.458 5.888-8.243 19.661 14.95 43.366 9.626 9.114 23.91 19.968 37.427 19.968 10.086 0 20.838-6.195 31.949-18.432 29.082-31.898 48.486-90.829 55.194-124.877-43.878 9.677-123.494 41.933-139.52 79.974zM676.198 742.018c-15.974-38.042-95.642-70.349-139.469-79.974 6.707 34.048 26.112 92.928 55.194 124.877 11.11 12.237 21.862 18.432 31.949 18.432 13.466 0 27.802-10.854 36.557-19.149 24.013-24.525 18.227-38.298 15.77-44.186z" />
<glyph unicode="&#xe60a;" d="M450.56 238.671l481.28 25.6c40.96 0 46.080 10.24 51.2 51.2 10.24 76.8 15.36 148.48 25.6 225.28 5.12 35.84 10.24 76.8 10.24 112.64 0 20.48-10.24 30.72-30.72 30.72-5.12 0-15.36 0-20.48 0-235.52 0-440.32 0-675.84 0-15.36 0-20.48 5.12-25.6 15.36-10.24 46.080-40.96 138.24-61.44 184.32-5.12 20.48-20.48 30.72-40.96 30.72-35.84 0-112.64 0-117.76 0 0 0 0 0 0 0s0 0 0 0 0 0 0 0v0c-25.6 0-46.080-20.48-46.080-46.080s20.48-46.080 46.080-46.080c0 0 0 0 0 0 5.12 0 56.32 0 66.56 0s20.48-5.12 25.6-20.48l194.56-522.24c5.12-10.24 5.12-20.48-5.12-30.72l-61.44-66.56c-46.080-76.8 5.12-143.36 46.080-158.72 10.24-5.12 20.48-5.12 25.6-10.24-5.12-10.24-10.24-20.48-10.24-35.84 0-35.84 25.6-61.44 61.44-61.44s61.44 25.6 61.44 61.44c0 10.24-5.12 20.48-10.24 30.72 0 0 0 5.12 0 5.12 81.92 0 261.12 0 378.88 0-5.12-10.24-10.24-20.48-10.24-30.72 0-35.84 25.6-61.44 61.44-61.44s61.44 25.6 61.44 61.44c0 10.24-5.12 20.48-10.24 30.72 10.24 0 15.36 0 15.36 0v0c25.6 0 46.080 20.48 46.080 46.080s-20.48 46.080-46.080 46.080c0 0 0 0 0 0v0h-552.96c-20.48 0-30.72 10.24-30.72 30.72 0 10.24 5.12 20.48 20.48 35.84 0 0 56.32 56.32 46.080 46.080 0 0 20.48 20.48 30.72 20.48z" />
<glyph unicode="&#xe60b;" d="M345.242 677.353c0-14.746 5.734-28.621 16.179-39.066s24.269-16.179 39.066-16.179h227.43l-404.941-404.941c-21.555-21.555-21.555-56.576 0-78.131 10.445-10.445 24.269-16.179 39.066-16.179s28.621 5.734 39.066 16.179l405.197 405.197v-227.994c0-14.746 5.734-28.621 16.179-39.066s24.269-16.179 39.066-16.179c30.464 0 55.245 24.781 55.245 55.245v359.014l0.051 0.563c0.051 1.075 0.102 2.15 0.205 3.174-0.41 14.182-6.144 27.392-16.128 37.427-10.342 10.342-23.552 16.026-37.683 16.486-1.075-0.102-2.048-0.205-3.123-0.205l-0.563-0.051-359.066-0.051c-30.464 0.051-55.245-24.73-55.245-55.245z" />
<glyph unicode="&#xe60c;" d="M685.005 882.46h-501.146c-29.491 0-45.722-20.531-45.722-50.074v-807.578c0-29.542 17.254-51.2 48.026-51.2h655.053c29.133 0 44.698 21.658 44.698 51.2v607.078l-200.909 250.573zM818.432 602.447v-561.203l-612.813 0.051-0.051 18.893v754.637h447.13l0.051-206.285 165.581 0.154v-6.246h0.102zM707.942 396.418c-21.606 21.606-56.576 21.606-78.182 0l-62.413-62.413v300.339c0 30.515-24.73 55.245-55.245 55.245s-55.296-24.73-55.245-55.245v-300.544l-62.669 62.669c-21.555 21.606-56.576 21.606-78.182 0s-21.606-56.576 0-78.182l155.75-155.75c0.358-0.41 0.614-0.87 1.024-1.229 10.803-10.803 25.037-16.179 39.168-16.179 14.182-0.051 28.365 5.376 39.168 16.179 0.41 0.41 0.666 0.87 1.024 1.229l155.75 155.75c21.658 21.555 21.658 56.525 0.051 78.131z" />
<glyph unicode="&#xe60d;" d="M853.146 691.945h-468.992v2.662c0 18.227-9.882 37.12-35.072 37.12h-118.989c-22.221 0-34.355-16.282-34.355-37.12v-2.611h-24.883c-44.954 0-81.562-36.557-81.562-81.562v-394.957c0-44.954 36.608-81.562 81.562-81.562h682.342c44.954 0 81.562 36.557 81.562 81.562v394.957c-0.051 44.954-36.608 81.51-81.613 81.51zM402.534 283.881c-70.656 0-127.898 57.242-127.898 127.898s57.242 127.898 127.898 127.898 127.898-57.242 127.898-127.898c0-70.656-57.242-127.898-127.898-127.898zM816.691 514.485c-1.741-0.512-3.533-0.922-5.427-0.922h-95.642c-0.154 0-0.307 0.051-0.512 0.051-19.354 0.358-34.918 16.128-34.918 35.584s15.565 35.226 34.918 35.584c0.154 0 0.307 0.051 0.512 0.051h95.642c1.894 0 3.686-0.358 5.427-0.922 15.923-3.533 27.853-17.715 27.853-34.714s-11.93-31.181-27.853-34.714z" />
<glyph unicode="&#xe60e;" d="M345.958 144.412h332.083c18.33 0 33.229 14.899 33.229 33.229s-14.848 33.229-33.229 33.229h-332.083c-18.33 0-33.229-14.899-33.229-33.229 0-18.381 14.899-33.229 33.229-33.229zM345.958 314.345h332.083c18.33 0 33.229 14.899 33.229 33.229s-14.848 33.229-33.229 33.229h-332.083c-18.33 0-33.229-14.899-33.229-33.229 0-18.381 14.899-33.229 33.229-33.229zM345.958 484.175h332.083c18.33 0 33.229 14.899 33.229 33.229s-14.848 33.229-33.229 33.229h-332.083c-18.33 0-33.229-14.899-33.229-33.229 0-18.381 14.899-33.229 33.229-33.229zM685.005 883.279h-501.146c-29.491 0-45.722-20.531-45.722-50.074v-807.526c0-29.542 17.254-51.2 48.026-51.2h655.053c29.133 0 44.698 21.658 44.698 51.2v607.078l-200.909 250.522zM818.432 603.317v-561.203l-612.813-0.051-0.051 18.893v754.739h447.13l0.102-206.336 165.581 0.154 0.051-6.195z" />
<glyph unicode="&#xe60f;" d="M512 836.431c-222.669 0-403.2-180.531-403.2-403.2s180.531-403.2 403.2-403.2 403.2 180.531 403.2 403.2-180.531 403.2-403.2 403.2zM638.31 416.898l-181.862-106.65c-3.174-1.843-6.81-2.765-10.445-2.765-3.43 0-6.861 0.819-9.933 2.509-6.349 3.43-10.291 9.882-10.291 16.794v213.299c0 6.963 3.942 13.363 10.291 16.794s14.131 3.328 20.378-0.256l181.862-106.65c6.042-3.482 9.779-9.779 9.779-16.538s-3.686-13.056-9.779-16.538z" />
<glyph unicode="&#xe610;" d="M509.44 41.244c-216.166 0-391.987 175.872-391.987 391.987s175.821 391.987 391.987 391.987 391.987-175.821 391.987-391.987-175.872-391.987-391.987-391.987zM509.44 755.791c-177.869 0-322.56-144.691-322.56-322.56s144.691-322.56 322.56-322.56 322.56 144.691 322.56 322.56-144.691 322.56-322.56 322.56zM635.75 449.973l-181.862 106.65c-6.246 3.584-14.029 3.686-20.378 0.256s-10.291-9.83-10.291-16.794v-213.35c0-6.963 3.942-13.414 10.291-16.794 3.072-1.638 6.502-2.509 9.933-2.509 3.584 0 7.219 0.922 10.445 2.765l181.862 106.65c6.042 3.482 9.779 9.779 9.779 16.538 0 6.81-3.686 13.107-9.779 16.589z" />
<glyph unicode="&#xe611;" d="M883.866 685.442c-9.472 3.891-19.814 6.093-30.669 6.093h-682.342c-10.854 0-21.197-2.202-30.669-6.093l371.814-256.973 371.866 256.973zM924.826 629.378l-393.114-271.667c-5.939-4.096-12.851-6.144-19.763-6.144s-13.773 2.048-19.763 6.144l-393.011 271.667c-2.15 1.485-4.045 3.226-5.734 5.069-2.458-7.782-4.147-15.872-4.147-24.422v-394.957c0-44.954 36.608-81.562 81.562-81.562h682.342c44.954 0 81.562 36.557 81.562 81.562v394.957c0 8.55-1.69 16.64-4.147 24.422-1.741-1.843-3.635-3.584-5.786-5.069z" />
<glyph unicode="&#xe612;" d="M426.957 103.247c0 46.95 38.093 85.043 85.043 85.043s85.043-38.042 85.043-85.043c0-46.95-38.042-85.043-85.043-85.043-46.95 0.051-85.043 38.093-85.043 85.043zM597.453 762.549c0 1.843-0.102 3.686-0.256 5.53 0 0.154 0.051 0.307 0.051 0.461 0 47.155-38.246 85.35-85.35 85.35-47.155 0-85.35-38.195-85.35-85.35 0-0.512 0.154-0.922 0.154-1.434-0.102-1.536-0.154-3.021-0.154-4.557 0-19.302 7.168-118.579 29.747-443.392 0.102-1.638 0.307-3.123 0.461-4.71v-0.154c0-0.666 0.154-1.28 0.205-1.946 0.154-1.638 0.307-3.43 0.512-5.018 0.307-2.355 0.666-4.659 1.28-6.861 1.69-8.141 4.71-14.899 9.933-20.019 10.035-12.954 25.6-21.402 43.315-21.402s33.28 8.499 43.366 21.402c5.222 5.171 8.243 11.878 9.933 20.070 0.563 2.253 0.922 4.506 1.229 6.861 0.205 1.69 0.358 3.533 0.563 5.325 0 0.563 0.154 1.075 0.154 1.638v0.102c0.154 1.587 0.307 3.072 0.461 4.762 22.579 324.762 29.747 424.038 29.747 443.341z" />
<glyph unicode="&#xe613;" d="M547.84 330.831c0 0 0 0 0 0l138.24 138.24c20.48 20.48 20.48 51.2 0 66.56-20.48 20.48-51.2 20.48-66.56 0l-102.4-102.4-107.52 102.4c-20.48 20.48-51.2 20.48-71.68 0s-20.48-51.2 0-66.56l138.24-138.24c0 0 0 0 0 0 10.24-10.24 20.48-15.36 35.84-15.36 10.24 0 25.6 5.12 35.84 15.36z" />
<glyph unicode="&#xe614;" d="M885.76 576.591c76.8 87.040 61.44 296.96 61.44 296.96l-281.6 71.68c-30.72-122.88-107.52-133.12-143.36-133.12h-15.36c-40.96 0-122.88 10.24-148.48 133.12l-286.72-76.8c0 0-15.36-204.8 61.44-296.96 30.72 15.36 97.28 51.2 97.28 51.2h25.6l-51.2-501.76c0 0 230.4-30.72 215.040-189.44 0-10.24 46.080-10.24 92.16-10.24 40.96 0 87.040 0 87.040 5.12-15.36 163.84 215.040 189.44 215.040 189.44l-51.2 501.76h25.6c0 5.12 66.56-30.72 97.28-40.96z" />
<glyph unicode="&#xe615;" d="M998.4 888.911c-20.48 30.72-501.76 56.32-563.2 56.32-20.48 0-40.96 0-51.2 0-40.96-5.12-66.56-51.2-71.68-61.44-10.24-15.36-15.36-51.2-15.36-81.92s0-117.76 0-128c0-10.24-10.24-117.76-25.6-184.32l-10.24-51.2c-10.24-61.44-30.72-148.48-46.080-199.68-25.6-71.68-35.84-133.12-46.080-168.96-10.24-40.96-15.36-51.2-20.48-51.2s-10.24 0-15.36-5.12c-10.24 0-25.6-5.12-40.96-10.24-5.12 0-10.24-5.12-15.36-5.12-15.36-5.12-20.48-10.24-25.6-20.48v-10.24c5.12-25.6 20.48-35.84 46.080-40.96l20.48-5.12c20.48 5.12 40.96 0 61.44 0s35.84 5.12 46.080 10.24c15.36 10.24 25.6 30.72 35.84 51.2 5.12 10.24 15.36 30.72 20.48 35.84 15.36 15.36 56.32 35.84 92.16 46.080 46.080 15.36 51.2 46.080 46.080 71.68-5.12 10.24-10.24 20.48-30.72 40.96-15.36 15.36-15.36 20.48-15.36 20.48 0 10.24 15.36 87.040 40.96 143.36 5.12 20.48 20.48 40.96 30.72 66.56l5.12 5.12c35.84 92.16 56.32 148.48 61.44 174.080 5.12 30.72 5.12 112.64-10.24 158.72 10.24-5.12 25.6-10.24 30.72-15.36l15.36-10.24c40.96-20.48 332.8-117.76 368.64-128l20.48-5.12 10.24 20.48c15.36 30.72 30.72 61.44 46.080 174.080 15.36 97.28 10.24 102.4 5.12 107.52z" />
<glyph unicode="&#xe616;" d="M672.768 563.279c3.226 30.362 3.789 37.939 3.789 44.083 0 19.712-6.502 35.584-38.093 48.845-27.341 11.366-65.638 18.432-99.994 18.432-165.12 0-223.744-154.163-223.744-286.208 0-161.946 81.203-186.163 129.638-186.163 49.152 0 91.238 23.757 125.338 70.605 12.902-30.976 43.213-70.605 114.125-70.605 104.448 0 216.883 92.006 216.883 293.939 0 223.846-145.357 374.221-361.677 374.221-244.736 0-415.642-191.898-415.642-466.637 0-299.418 197.786-406.118 382.874-406.118 70.707 0 159.386 15.667 201.933 35.686 30.618 14.438 36.608 29.747 36.608 51.405 0 38.656-14.080 58.214-41.882 58.214-11.162 0-26.112-4.71-46.797-11.264-36.045-11.418-85.402-27.034-144.589-27.034-128.461 0-278.528 79.309-278.528 302.899 0 205.21 128.922 354.202 306.534 354.202 152.525 0 251.034-107.93 251.034-274.995 0-98.355-43.571-181.453-95.13-181.453-29.542 0-40.038 37.786-40.038 73.114 0 7.782 0.512 13.517 0.973 18.688l16.384 166.144zM564.070 569.73l-16.998-191.846c-18.227-28.16-47.667-72.448-77.414-72.448-19.61 0-50.739 25.088-50.739 92.365 0 84.378 41.83 175.514 109.414 175.514 10.957 0 26.982-1.741 35.738-3.584z" />
<glyph unicode="&#xe617;" d="M897.894 489.244h-58.317c-22.17 141.466-133.786 253.286-275.2 275.712v57.805c0 28.877-23.501 52.378-52.378 52.378s-52.378-23.501-52.378-52.378v-57.754c-141.619-22.323-253.338-134.144-275.558-275.763h-57.958c-28.877 0-52.378-23.501-52.378-52.378s23.501-52.378 52.378-52.378h58.061c22.579-141.158 134.246-252.621 275.456-274.944v-58.573c0-28.877 23.501-52.378 52.378-52.378s52.378 23.501 52.378 52.378v58.675c141.056 22.426 252.57 133.888 275.098 274.893h58.419c28.877 0 52.378 23.501 52.378 52.378 0 28.826-23.501 52.326-52.378 52.326zM738.97 437.327c0-125.235-101.888-227.174-227.174-227.174s-227.123 101.939-227.123 227.174 101.888 227.174 227.123 227.174 227.174-101.939 227.174-227.174zM634.061 437.327c0-67.525-54.74-122.266-122.266-122.266s-122.266 54.74-122.266 122.266c0 67.525 54.74 122.266 122.266 122.266s122.266-54.74 122.266-122.266z" />
<glyph unicode="&#xe618;" d="M515.277 890.703c-186.573 0-344.627-158.925-344.627-347.187 0-197.12 177.766-407.245 300.954-548.915 0.461-0.563 14.387-18.893 41.165-18.893 25.958 0 40.141 17.51 40.653 18.074 115.61 132.915 299.93 365.21 299.93 553.574 0 188.262-123.29 343.347-338.074 343.347zM512.768 351.567c-105.523 0-191.078 85.555-191.078 191.078s85.555 191.078 191.078 191.078 191.078-85.555 191.078-191.078c0-105.523-85.555-191.078-191.078-191.078z" />
<glyph unicode="&#xe619;" d="M883.968 451.919c-108.698-0.154-129.126-0.205-136.397-0.256-15.514-50.79-43.366-97.075-81.254-136.243-30.259-31.283-72.397-64.819-110.95-82.278 0-0.256 0.051-110.336 0.051-110.336 0-23.962 19.866-42.035 46.182-42.035h126.31l33.843-64.717c0.307-0.614 5.632-13.005 19.405-13.005s19.405 13.005 19.405 13.005l34.15 64.717h49.408c24.832 0 43.52 18.227 43.52 42.394v285.389c0 24.73-18.79 43.366-43.674 43.366zM394.138 863.362c-164.198 0-297.728-133.581-297.728-297.728 0-98.458 48.282-189.952 129.382-245.606l1.229-73.37 1.075-49.562c0 0 1.075-11.571 10.854-17.51 3.123-1.894 6.349-2.56 9.318-2.56 6.195 0 11.162 2.918 11.162 2.918s39.168 22.989 45.978 28.262l24.474 15.053 74.752 44.851c159.386 5.53 287.283 136.909 287.283 297.574-0.051 164.147-133.632 297.677-297.779 297.677zM394.138 367.695h-8.806l-73.165-43.93-1.024 60.57-25.037 16.077c-54.17 36.25-86.528 96.768-86.528 161.843 0 107.315 87.296 194.56 194.56 194.56s194.56-87.296 194.56-194.56-87.296-194.56-194.56-194.56z" />
<glyph unicode="&#xe61a;" d="M180.378 610.741c-71.168-178.944 13.107-381.952 188.16-458.701l63.386-83.098 20.634-27.597c5.274-8.909 38.707-51.866 38.707-51.866s4.198-5.427 11.11-8.192c3.277-1.28 7.168-1.997 11.52-1.28 13.517 2.304 19.866 14.694 19.866 14.694l23.142 54.733 33.894 81.203c114.995 26.061 209.306 106.598 252.928 216.218 72.755 182.835-16.845 390.81-199.731 463.514-182.938 72.806-390.861-16.794-463.616-199.629zM282.829 566.965c49.869 125.389 192.461 186.829 317.85 136.96s186.829-192.461 136.96-317.85c-30.259-76.083-96.154-131.738-176.333-148.941l-36.762-7.168-29.44-70.298-65.024 85.35-10.291 4.096c-125.389 49.869-186.829 192.461-136.96 317.85z" />
<glyph unicode="&#xe61b;" d="M852.122 592.361h-104.96v187.546c0 35.994-31.693 67.533-67.789 67.533h-334.746c-36.096 0-67.789-31.59-67.789-67.533v-187.546h-104.96c-29.184 0-52.992-23.654-52.992-52.736v-316.058c0-29.235 23.757-52.992 52.992-52.992h104.96v-112.23c0-36.608 32.307-69.939 67.789-69.939h334.797c35.482 0 67.789 33.331 67.789 69.939v112.23h104.96c29.184 0 52.992 23.757 52.992 52.992v316.058c-0.051 29.082-23.808 52.736-53.043 52.736zM677.683 77.801c0-11.008-8.909-19.917-19.917-19.917h-291.533c-10.957 0-19.917 8.96-19.917 19.917v170.035c0 10.957 8.909 19.917 19.917 19.917h291.533c10.957 0 19.917-8.96 19.917-19.917v-170.035zM677.683 592.361h-331.366v167.424c0 10.547 8.397 18.176 19.917 18.176h294.195c10.65 0 17.254-6.963 17.254-18.176v-167.424zM765.491 423.298h-72.806c-19.098 0-34.56 15.462-34.56 34.56s15.462 34.56 34.56 34.56h72.806c19.098 0 34.56-15.462 34.56-34.56s-15.462-34.56-34.56-34.56z" />
<glyph unicode="&#xe61c;" d="M581.683 433.231l104.858 104.858c19.2 19.2 19.2 50.33 0 69.581-19.2 19.2-50.33 19.2-69.581 0l-104.96-105.011-105.011 105.011c-19.2 19.2-50.33 19.2-69.581 0-19.2-19.2-19.2-50.33 0-69.581l104.909-104.858-104.909-104.858c-19.2-19.2-19.2-50.33 0-69.581 19.2-19.2 50.381-19.2 69.581 0l105.011 105.011 105.011-105.011c19.2-19.2 50.33-19.2 69.581 0 19.2 19.2 19.2 50.33 0 69.581l-104.909 104.858z" />
<glyph unicode="&#xe61d;" d="M798.566 719.695c-76.493 76.493-178.227 118.63-286.464 118.63s-209.92-42.138-286.464-118.682c-76.493-76.493-118.63-178.227-118.63-286.413s42.138-209.92 118.682-286.413c76.493-76.493 178.227-118.682 286.464-118.682 108.186 0 209.92 42.138 286.464 118.682 157.85 157.901 157.85 414.925-0.051 572.877zM686.592 258.793c-19.251-19.2-50.381-19.2-69.581 0l-105.011 105.011-105.011-105.011c-19.2-19.2-50.381-19.2-69.581 0-19.2 19.251-19.2 50.381 0 69.581l104.909 104.858-104.909 104.858c-19.2 19.251-19.2 50.381 0 69.581 19.251 19.2 50.381 19.2 69.581 0l105.011-105.011 104.96 105.011c19.251 19.2 50.381 19.2 69.581 0 19.2-19.251 19.2-50.381 0-69.581l-104.858-104.858 104.909-104.858c19.2-19.251 19.2-50.381 0-69.581z" />
<glyph unicode="&#xe61e;" d="M857.856 656.77c-16.128 16.128-37.581 25.037-60.467 25.037s-44.288-8.909-60.416-25.037l-332.595-332.595-118.835 118.784c-16.128 16.179-37.581 25.088-60.467 25.088s-44.288-8.909-60.416-25.037c-16.128-16.128-25.037-37.581-25.037-60.467s8.909-44.288 25.037-60.416l179.251-179.251c16.128-16.179 37.581-25.037 60.467-25.037s44.339 8.909 60.467 25.037l393.062 393.011c33.28 33.331 33.28 87.552-0.051 120.883z" />
<glyph unicode="&#xe61f;" d="M197.683 107.855c0 0 132.352 61.235 142.95 71.834l9.062 8.858-80.179 80.333-9.165-8.858c-10.598-10.598-72.397-142.336-72.397-142.336s-2.406-5.274 1.024-8.704 8.704-1.126 8.704-1.126zM383.898 123.369c-6.81-6.758-15.616-12.083-24.32-16.23-64.41-30.413-218.829-91.187-218.829-91.187-23.398-8.653-36.454 7.68-36.454 7.68s-16.538 11.93-8.192 36.966c0 0 60.262 153.702 90.982 217.958 5.53 11.52 13.722 22.426 22.784 31.539 156.365 156.928 374.426 374.682 531.046 531.251 14.746 14.746 33.587 11.725 46.541-1.229 32.461-32.461 100.403-100.915 132.864-133.427 9.882-9.882 15.053-31.642 0.563-46.182 0 0.051-375.501-376.115-536.986-537.139z" />
<glyph unicode="&#xe620;" d="M217.549 491.804c10.445-10.445 24.32-16.179 39.066-16.179s28.672 5.734 39.066 16.179l160.87 160.87v-572.621c0-30.464 24.781-55.245 55.245-55.245 14.746 0 28.621 5.734 39.066 16.179s16.179 24.32 16.179 39.066v573.030l161.229-161.229c10.445-10.445 24.32-16.179 39.066-16.179s28.621 5.734 39.066 16.179c21.555 21.555 21.555 56.576 0 78.131l-254.208 254.259c-0.717 0.768-1.434 1.587-2.099 2.406-10.342 9.728-23.706 15.053-37.888 15.053-14.592 0-28.006-5.325-38.298-15.002-0.666-0.87-1.331-1.638-2.048-2.406l-0.358-0.41-253.952-253.952c-21.504-21.504-21.504-56.576 0-78.131z" />
<glyph unicode="&#xe621;" d="M477.491 536.809c-0.205-0.205-0.358-0.461-0.563-0.666l-137.626-137.626c-18.995-18.995-18.995-49.818 0-68.864 18.995-18.995 49.818-18.995 68.864 0l103.834 103.834 103.834-103.834c18.995-18.995 49.818-18.995 68.864 0 18.995 18.995 18.995 49.818 0 68.864l-137.626 137.626c-0.205 0.205-0.358 0.461-0.563 0.666-9.523 9.523-22.016 14.285-34.509 14.234-12.493 0.051-24.986-4.71-34.509-14.234z" />
<glyph unicode="&#xe622;" d="M615.578 444.7c-0.205 0.205-0.461 0.358-0.666 0.563l-137.626 137.626c-18.995 18.995-49.818 18.995-68.864 0-18.995-18.995-18.995-49.818 0-68.864l103.834-103.834-103.834-103.834c-18.995-18.995-18.995-49.818 0-68.864 18.995-18.995 49.818-18.995 68.864 0l137.626 137.626c0.205 0.205 0.461 0.358 0.666 0.563 9.523 9.523 14.285 22.016 14.234 34.509 0.051 12.493-4.71 24.986-14.234 34.509z" />
<glyph unicode="&#xe623;" d="M408.422 375.733c0.205-0.205 0.461-0.358 0.666-0.563l137.626-137.626c18.995-18.995 49.818-18.995 68.864 0 18.995 18.995 18.995 49.818 0 68.864l-103.834 103.782 103.834 103.834c18.995 18.995 18.995 49.818 0 68.864-18.995 18.995-49.818 18.995-68.864 0l-137.626-137.626c-0.205-0.205-0.461-0.358-0.666-0.563-9.523-9.523-14.285-22.016-14.234-34.509-0.051-12.442 4.71-24.934 14.234-34.458z" />
<glyph unicode="&#xe624;" d="M570.573 722.153c-10.445-10.445-16.179-24.32-16.179-39.066s5.734-28.621 16.179-39.066l160.819-160.819h-572.621c-30.464 0-55.245-24.781-55.245-55.245 0-14.746 5.734-28.621 16.179-39.066s24.32-16.179 39.066-16.179h573.030l-161.229-161.229c-10.445-10.445-16.179-24.32-16.179-39.066s5.734-28.621 16.179-39.066c21.555-21.555 56.576-21.555 78.131 0l254.259 254.208c0.768 0.717 1.587 1.434 2.406 2.099 9.728 10.342 15.053 23.706 15.053 37.888 0 14.592-5.325 28.006-15.002 38.298-0.819 0.666-1.587 1.331-2.355 2.048l-0.41 0.358-253.952 253.901c-21.504 21.555-56.576 21.555-78.131 0z" />
<glyph unicode="&#xe625;" d="M453.427 133.25c10.445 10.445 16.179 24.32 16.179 39.066s-5.734 28.621-16.179 39.066l-160.819 160.819h572.621c30.464 0 55.245 24.781 55.245 55.245 0 14.746-5.734 28.621-16.179 39.066s-24.32 16.179-39.066 16.179h-573.082l161.229 161.229c10.496 10.547 16.23 24.371 16.23 39.168 0 14.746-5.734 28.621-16.179 39.066-21.555 21.555-56.576 21.555-78.131 0l-254.31-254.259c-0.768-0.717-1.587-1.434-2.355-2.099-9.728-10.342-15.053-23.706-15.053-37.888 0-14.592 5.325-28.006 15.002-38.298 0.819-0.666 1.587-1.331 2.355-2.048l254.31-254.362c21.555-21.453 56.627-21.453 78.182 0.051z" />
<glyph unicode="&#xe626;" d="M803.686 374.658c-10.445 10.445-24.32 16.179-39.066 16.179s-28.621-5.734-39.066-16.179l-160.819-160.819v572.621c0 30.464-24.781 55.245-55.245 55.245-14.746 0-28.621-5.734-39.066-16.179-10.496-10.496-16.23-24.371-16.23-39.117v-573.030l-161.229 161.229c-10.445 10.445-24.32 16.179-39.066 16.179s-28.621-5.734-39.066-16.179c-21.555-21.555-21.555-56.576 0-78.131l254.208-254.259c0.717-0.768 1.434-1.587 2.099-2.406 10.342-9.728 23.706-15.053 37.888-15.053 14.592 0 28.006 5.325 38.298 15.002 0.666 0.819 1.331 1.587 2.048 2.355l254.362 254.31c21.453 21.606 21.453 56.678-0.051 78.234z" />
<glyph unicode="&#xe627;" d="M878.029 671.721c-14.797 0-28.723-5.786-39.168-16.23l-326.861-326.81-326.861 326.861c-10.445 10.445-24.371 16.179-39.168 16.179s-28.723-5.786-39.168-16.23c-10.496-10.445-16.282-24.371-16.282-39.168s5.786-28.723 16.23-39.168l364.646-364.698c0.768-0.819 1.485-1.638 2.202-2.458 10.394-9.882 23.91-15.309 38.246-15.309 14.694 0 28.211 5.427 38.554 15.309 0.768 0.87 1.485 1.69 2.202 2.406l0.922 1.024 363.725 363.725c10.496 10.445 16.23 24.371 16.23 39.168s-5.786 28.723-16.23 39.168c-10.496 10.496-24.422 16.23-39.219 16.23z" />
<glyph unicode="&#xe628;" d="M785.562 429.647h-547.123c-26.266 0-35.891-14.899-35.891-35.891v-320.256c0-22.784 11.11-35.891 35.891-35.891h547.072c25.293 0 35.891 13.414 35.891 35.891v320.256c0.051 28.109-14.694 35.891-35.84 35.891zM775.731 552.22v27.238c0 75.622-27.034 140.902-74.189 189.798-48.64 50.483-116.378 78.234-190.771 78.234-74.24 0-141.67-28.109-189.85-79.206-46.234-48.947-72.704-113.869-72.704-188.826v-27.443c0-4.045 0.768-24.986 16.179-40.448 6.912-6.912 19.251-15.155 38.912-15.155 19.61 0 31.898 8.243 38.758 15.206 15.718 15.974 15.923 37.939 15.923 40.346v30.208c0 95.181 62.925 155.494 153.037 155.494 44.851 0 85.35-16.589 114.022-46.643 26.624-27.955 40.755-61.594 40.755-108.851v-28.877c-0.205-2.458-0.717-24.678 14.95-41.062 6.861-7.219 19.405-15.821 39.936-15.821 20.48 0 33.024 8.602 39.936 15.77 16.179 16.896 15.155 39.424 15.104 40.038z" />
<glyph unicode="&#xe629;" d="M798.566 719.695c-76.493 76.493-178.227 118.63-286.464 118.63s-209.92-42.138-286.464-118.682c-76.493-76.493-118.63-178.227-118.63-286.413s42.138-209.92 118.682-286.413c76.493-76.493 178.227-118.682 286.464-118.682 108.186 0 209.92 42.138 286.464 118.682 157.85 157.901 157.85 414.925-0.051 572.877zM684.698 329.653c-19.046-18.995-49.869-18.995-68.864 0l-103.834 103.834-103.834-103.834c-19.046-18.995-49.869-18.995-68.864 0-18.995 19.046-18.995 49.869 0 68.864l137.626 137.626c0.205 0.205 0.358 0.461 0.563 0.666 9.523 9.523 22.016 14.285 34.509 14.234 12.493 0.051 24.986-4.71 34.509-14.234 0.205-0.205 0.358-0.461 0.563-0.666l137.626-137.626c18.995-19.046 18.995-49.869 0-68.864z" />
<glyph unicode="&#xe62a;" d="M880.64 556.111c-20.48-56.32-92.16-245.76-102.4-286.72-15.36-35.84-46.080-46.080-71.68-46.080h-112.64l-112.64-307.2h-107.52l261.12 716.8h184.32c30.72 5.12 81.92-20.48 61.44-76.8v0zM721.92 576.591l-107.52-291.84h56.32l107.52 291.84h-56.32zM532.48 545.871l-112.64-307.2h-112.64l122.88 337.92h-56.32l-122.88-337.92h-112.64l256 706.56h112.64l-112.64-312.32h76.8c56.32 0 76.8-40.96 61.44-87.040v0z" />
<glyph unicode="&#xe62b;" d="M742.4 238.671c-30.72-5.12-61.44-5.12-87.040-5.12-81.92 20.48-133.12 61.44-148.48 128-20.48 92.16 40.96 199.68 107.52 235.52 51.2 25.6 107.52 30.72 158.72 10.24 46.080-15.36 76.8-46.080 92.16-87.040 25.6-66.56 0-133.12-61.44-163.84-25.6-15.36-56.32-15.36-87.040-10.24s-51.2 20.48-61.44 40.96c-10.24 15.36-10.24 35.84-5.12 51.2s15.36 25.6 30.72 35.84c10.24 5.12 25.6 5.12 40.96 0 5.12-5.12 15.36-10.24 20.48-20.48 5.12-20.48 30.72-35.84 51.2-25.6 20.48 5.12 35.84 30.72 25.6 51.2-10.24 30.72-35.84 61.44-66.56 71.68-35.84 15.36-76.8 15.36-112.64-5.12s-61.44-51.2-71.68-87.040c-10.24-35.84-5.12-76.8 15.36-112.64 20.48-40.96 66.56-71.68 117.76-87.040 51.2-10.24 102.4-5.12 143.36 15.36 102.4 56.32 143.36 163.84 102.4 271.36-25.6 61.44-76.8 107.52-143.36 133.12-71.68 25.6-153.6 20.48-225.28-15.36-92.16-51.2-174.080-194.56-148.48-327.68 0 0 0 0 0-5.12-40.96 46.080-81.92 92.16-122.88 148.48-25.6 35.84-56.32 56.32-81.92 56.32 0 30.72-10.24 66.56-35.84 102.4 0 0-5.12 5.12-5.12 5.12 5.12 5.12 10.24 15.36 15.36 25.6 5.12 30.72-15.36 61.44-46.080 66.56-30.72 10.24-61.44-10.24-66.56-40.96-10.24-30.72 10.24-61.44 40.96-71.68 10.24 0 20.48 0 30.72 0 0-5.12 0-5.12 0-10.24 20.48-25.6 30.72-51.2 30.72-76.8-10.24-5.12-20.48-10.24-30.72-20.48-10.24 20.48-30.72 40.96-61.44 56.32 0 0-5.12 0-5.12 0 5.12 10.24 5.12 15.36 0 25.6-10.24 25.6-35.84 40.96-56.32 35.84-25.6-5.12-40.96-30.72-35.84-56.32 10.24-25.6 35.84-40.96 56.32-30.72 10.24 0 15.36 10.24 20.48 15.36 0 0 0-5.12 5.12-5.12 30.72-15.36 51.2-35.84 61.44-51.2-25.6-35.84-35.84-92.16-5.12-138.24 92.16-143.36 168.96-189.44 271.36-225.28 143.36-51.2 353.28-25.6 465.92 15.36 66.56 20.48 153.6 51.2 148.48 81.92-10.24 56.32-117.76 20.48-281.6 0z" />
<glyph unicode="&#xe62c;" d="M1008.64 525.391c0 0 30.72 117.76 10.24 215.040-46.080 15.36-394.24 112.64-394.24 112.64s-10.24 5.12-10.24-5.12c0-10.24 0-92.16-92.16-102.4 0 0-20.48 0-20.48 0-92.16 10.24-92.16 92.16-92.16 102.4s-10.24 5.12-10.24 5.12-348.16-97.28-394.24-112.64c-15.36-97.28 10.24-215.040 10.24-215.040s209.92 61.44 276.48 76.8c30.72 5.12 35.84 10.24 35.84 10.24s-61.44-512-66.56-537.6c66.56-25.6 153.6-61.44 250.88-61.44s179.2 35.84 250.88 61.44c0 25.6-66.56 537.6-66.56 537.6s5.12-5.12 35.84-10.24c66.56-15.36 276.48-76.8 276.48-76.8z" />
<glyph unicode="&#xe62d;" d="M215.040 300.111h-76.8l-81.92 117.76v-117.76h-56.32v261.12h61.44v-107.52l81.92 107.52h71.68l-97.28-122.88 97.28-138.24zM1024 300.111h-71.68l-56.32 76.8v-76.8h-61.44v271.36h61.44v-153.6l56.32 76.8h66.56l-71.68-92.16 76.8-102.4zM302.080 294.991c-66.56 0-97.28 46.080-97.28 102.4s35.84 102.4 97.28 102.4c66.56 0 97.28-46.080 97.28-102.4s-30.72-102.4-97.28-102.4v0zM302.080 453.711c-30.72 0-46.080-25.6-46.080-51.2 0-30.72 15.36-51.2 46.080-51.2s46.080 25.6 46.080 51.2c0 25.6-20.48 51.2-46.080 51.2v0zM517.12 294.991c-66.56 0-97.28 46.080-97.28 102.4s35.84 102.4 97.28 102.4c15.36 0 30.72-5.12 40.96-10.24v81.92h56.32v-174.080c0-56.32-30.72-102.4-97.28-102.4v0zM517.12 453.711c-30.72 0-46.080-25.6-46.080-51.2 0-30.72 15.36-51.2 46.080-51.2s46.080 25.6 46.080 51.2c0 25.6-15.36 51.2-46.080 51.2v0zM721.92 294.991c-56.32 0-92.16 25.6-92.16 71.68 0 51.2 30.72 61.44 87.040 61.44h40.96c0 20.48-15.36 30.72-40.96 30.72s-46.080-5.12-56.32-10.24v40.96c15.36 5.12 46.080 10.24 66.56 10.24 51.2 0 81.92-25.6 81.92-76.8v-56.32c0-40.96-30.72-71.68-87.040-71.68v0zM757.76 387.151h-40.96c-20.48 0-35.84-5.12-35.84-20.48s15.36-25.6 40.96-25.6c20.48 0 35.84 10.24 35.84 25.6v20.48z" />
<glyph unicode="&#xe62e;" d="M327.68-78.769v384h133.12c92.16 0 163.84 5.12 209.92 15.36 35.84 10.24 71.68 25.6 107.52 46.080 35.84 25.6 61.44 56.32 87.040 102.4 20.48 40.96 35.84 97.28 35.84 158.72 0 81.92-20.48 148.48-56.32 199.68-40.96 51.2-87.040 87.040-143.36 102.4-46.080 10.24-128 15.36-250.88 15.36h-322.56v-1024h199.68zM424.96 771.151c71.68 0 122.88 0 148.48-5.12 30.72-5.12 61.44-20.48 81.92-46.080s30.72-56.32 30.72-92.16c0-30.72-5.12-56.32-20.48-81.92-15.36-20.48-35.84-40.96-61.44-51.2-30.72-10.24-81.92-15.36-163.84-15.36h-112.64v291.84h97.28z" />
<glyph unicode="&#xe62f;" d="M143.36 883.791c0 0-46.080-10.24-35.84-40.96s56.32-128 56.32-128 46.080-112.64 66.56-163.84c15.36-46.080 76.8-209.92 81.92-312.32-5.12-81.92 0-112.64 0-112.64s-10.24-81.92 35.84-97.28c46.080-15.36 76.8-20.48 128 0 76.8 25.6 158.72-46.080 209.92-71.68s76.8-40.96 128-25.6c51.2 15.36 81.92 40.96 97.28 71.68 25.6 46.080 5.12 112.64-30.72 153.6s-128 61.44-179.2 87.040c-102.4 35.84-92.16 112.64-117.76 250.88-25.6 122.88-66.56 276.48-61.44 296.96 5.12 15.36 0 122.88-25.6 153.6-10.24 5.12-56.32 0-133.12-15.36-71.68-10.24-220.16-46.080-220.16-46.080z" />
<glyph unicode="&#xe630;" d="M1024 694.351l-650.24 184.32-87.040-296.96h-286.72v-542.72h696.32v168.96l174.080-51.2 153.6 537.6zM634.88 100.431h-107.52c-5.12 71.68-56.32 138.24-133.12 158.72 40.96 15.36 66.56 56.32 66.56 97.28 0 61.44-51.2 112.64-112.64 112.64s-112.64-51.2-112.64-112.64c0-40.96 30.72-87.040 66.56-92.16-76.8-25.6-128-87.040-133.12-158.72h-107.52v419.84h578.56v-424.96zM696.32 274.511v307.2h-343.040l61.44 220.16 532.48-153.6-117.76-414.72-133.12 40.96z" />
<glyph unicode="&#xe631;" d="M486.4 197.711h-97.28l-92.16 343.040-92.16-337.92h-97.28l-107.52 450.56h92.16l66.56-312.32 81.92 312.32h107.52l81.92-317.44 71.68 317.44h92.16l-107.52-455.68zM901.12 561.231c-15.36 15.36-35.84 20.48-61.44 20.48-35.84 0-61.44-10.24-81.92-35.84s-30.72-61.44-30.72-117.76c0-56.32 10.24-97.28 30.72-122.88s46.080-35.84 81.92-35.84c25.6 0 46.080 10.24 61.44 25.6s30.72 40.96 35.84 71.68l87.040-30.72c-15.36-51.2-35.84-87.040-66.56-112.64s-71.68-35.84-122.88-35.84c-61.44 0-112.64 20.48-148.48 61.44-40.96 40.96-56.32 97.28-56.32 168.96 0 76.8 20.48 133.12 56.32 174.080 40.96 40.96 92.16 61.44 153.6 61.44 56.32 0 102.4-15.36 133.12-51.2 20.48-20.48 35.84-46.080 46.080-81.92l-92.16-20.48c0 30.72-10.24 51.2-25.6 61.44v0z" />
<glyph unicode="&#xe632;" d="M773.12 105.551l-128-40.96-112.64 245.76h-281.6l-25.6 291.84c0 20.48 15.36 35.84 40.96 40.96 20.48 0 40.96-15.36 40.96-35.84l5.12-66.56 107.52 10.24c15.36 0 30.72-10.24 30.72-25.6s-10.24-30.72-25.6-30.72l-107.52-10.24 10.24-97.28h261.12l102.4-225.28 56.32 20.48c20.48 5.12 46.080-5.12 51.2-25.6 5.12-25.6-5.12-46.080-25.6-51.2v0zM250.88 663.631c-46.080 0-81.92 35.84-81.92 76.8s35.84 76.8 81.92 76.8c46.080 0 81.92-35.84 81.92-76.8s-35.84-76.8-81.92-76.8v0zM158.72 341.071c-51.2-35.84-76.8-92.16-76.8-153.6 0-107.52 92.16-194.56 209.92-194.56 76.8 0 148.48 40.96 184.32 102.4 10.24 20.48 35.84 25.6 56.32 15.36s25.6-30.72 15.36-51.2c-51.2-87.040-148.48-143.36-256-143.36-163.84 5.12-291.84 128-291.84 276.48 0 81.92 40.96 158.72 107.52 209.92 15.36 15.36 40.96 10.24 56.32-5.12 15.36-20.48 10.24-40.96-5.12-56.32v0zM706.56 668.751h-56.32l-51.2 199.68-51.2-199.68h-66.56l-66.56 271.36h56.32l40.96-184.32 51.2 184.32h66.56l46.080-189.44 40.96 189.44h51.2l-61.44-271.36zM947.2 888.911c-10.24 10.24-20.48 10.24-35.84 10.24-20.48 0-35.84-5.12-46.080-20.48s-20.48-35.84-20.48-71.68c0-35.84 5.12-56.32 20.48-71.68 10.24-15.36 30.72-20.48 46.080-20.48s25.6 5.12 35.84 15.36c10.24 10.24 15.36 25.6 20.48 40.96l51.2-15.36c-10.24-30.72-20.48-51.2-40.96-66.56s-40.96-20.48-71.68-20.48c-35.84 0-66.56 10.24-87.040 35.84s-35.84 56.32-35.84 102.4c0 46.080 10.24 81.92 35.84 102.4 25.6 25.6 51.2 35.84 92.16 35.84 30.72 0 61.44-10.24 81.92-30.72 10.24-10.24 20.48-25.6 25.6-51.2l-56.32-15.36c0 20.48-5.12 30.72-15.36 40.96v0z" />
<glyph unicode="&#xe633;" d="M290.388 593.709c40.756 0 71.323 30.567 71.323 66.229s-30.567 66.229-71.323 66.229-71.323-25.473-71.323-61.134c0-40.756 30.567-71.323 71.323-71.323zM540.020 99.539c-15.284 10.189-40.756 5.095-50.945-15.284-30.567-56.040-91.701-91.701-163.025-91.701-101.891 0-188.498 76.418-188.498 173.214 0 56.040 25.473 101.891 71.323 137.552 15.284 10.189 20.378 30.567 5.095 45.851-10.189 15.284-35.662 15.284-50.945 5.095-61.134-45.851-96.796-117.174-96.796-188.498 0-132.458 117.174-244.537 259.821-244.537 96.796 0 183.403 50.945 229.254 127.363 10.189 20.378 5.095 40.756-15.284 50.945zM738.706 155.579l-50.945-15.284-91.701 203.781h-234.348l-10.189 91.701 101.891 10.189c15.284 0 25.473 15.284 25.473 30.567-5.095 10.189-20.378 20.378-35.662 15.284l-96.796-10.189-5.095 61.134c0 20.378-15.284 30.567-35.662 30.567s-35.662-15.284-35.662-35.662l20.378-264.915h254.726l101.891-224.159 117.174 35.662c20.378 5.095 30.567 25.473 25.473 40.756-10.189 25.473-30.567 35.662-50.945 30.567zM1018.905 751.639l-229.254 193.592v-127.363h-254.726v-127.363h254.726v-127.363l229.254 188.498z" horiz-adv-x="1019" />
<glyph unicode="&#xe634;" d="M107.52 182.351c46.080 0 81.92 35.84 81.92 81.92s-35.84 81.92-81.92 81.92c-46.080 0-81.92-35.84-81.92-81.92s35.84-81.92 81.92-81.92zM0 28.751h527.36v66.56h-527.36v-66.56zM266.24 141.391h138.24c35.84 0 66.56 25.6 66.56 61.44 0 10.24 0 15.36-5.12 20.48 0 0 0 5.12 0 5.12l-30.72 76.8 40.96 51.2c10.24 15.36 5.12 30.72-5.12 40.96-15.36 10.24-30.72 5.12-40.96-5.12l-51.2-66.56c-5.12-10.24-5.12-20.48-5.12-30.72l15.36-35.84h-122.88c0 0 0 0 0 0l20.48 87.040c5.12 20.48-5.12 35.84-20.48 35.84-15.36 5.12-25.6-5.12-30.72-20.48l-35.84-143.36c0-5.12 0-5.12 0-10.24s0-5.12 0-10.24c0-30.72 30.72-56.32 66.56-56.32zM747.52 627.791c56.32-15.36 117.76 20.48 133.12 76.8s-20.48 117.76-76.8 133.12c-56.32 15.36-117.76-20.48-133.12-76.8-20.48-61.44 15.36-122.88 76.8-133.12zM1018.88 197.711l-66.56 327.68c-10.24 56.32-61.44 97.28-107.52 87.040l-40.96-10.24c-15.36-5.12-30.72-10.24-40.96-25.6 0 0-5.12-5.12-5.12-5.12l-92.16-128-179.2 71.68c-20.48 10.24-40.96 0-51.2-20.48s0-40.96 20.48-51.2l204.8-81.92c5.12 0 10.24-5.12 15.36-5.12 10.24 0 25.6 5.12 30.72 15.36l40.96 56.32 56.32-276.48c10.24-56.32 35.84-102.4 107.52-87.040l40.96 10.24c76.8 15.36 76.8 66.56 66.56 122.88z" />
<glyph unicode="&#xe635;" d="M634.982 541.212c-113.408 0-205.722-92.262-205.722-205.722 0-113.408 92.314-205.67 205.722-205.67 113.459 0 205.67 92.314 205.67 205.67 0 113.459-92.211 205.722-205.67 205.722zM634.931 199.759c-74.906 0-135.782 60.774-135.782 135.731 0 75.008 60.826 135.782 135.782 135.782 75.059 0 135.782-60.826 135.782-135.782 0-75.008-60.723-135.731-135.782-135.731zM939.213 656.924h-31.386l-182.477 196.045c-1.382 1.382-3.123 2.15-5.018 2.15h-192.102c-2.202 0-4.096-1.024-5.478-2.662l-129.894-172.288h-42.854l-24.678 39.424c-1.28 2.048-3.379 3.277-5.786 3.277h-137.37c-1.997 0-3.789-0.87-5.12-2.355l-37.478-42.547c-0.666-0.768-1.178-1.69-1.434-2.765l-4.966-18.278h-48.384c-46.797 0-84.787-38.349-84.787-85.555v-490.547c0-47.309 37.99-85.76 84.787-85.76h854.426c46.797 0 84.787 38.451 84.787 85.76v490.547c0 47.206-37.99 85.555-84.787 85.555zM552.858 782.876l155.546 0.614v-80.947h-155.853l0.307 80.333zM329.83 521.756c-24.013 0-43.52 19.456-43.52 43.469 0 24.166 19.507 43.52 43.52 43.52 23.91 0 43.366-19.354 43.366-43.52 0-23.962-19.456-43.469-43.366-43.469zM634.982 71.503c-145.562 0-263.987 118.374-263.987 263.936s118.426 264.038 263.987 264.038c145.613 0 263.885-118.477 263.885-264.038s-118.272-263.936-263.885-263.936z" />
<glyph unicode="&#xe636;" d="M998.4 387.151c-51.2 102.4-158.72 153.6-266.24 133.12v0c66.56 66.56 51.2 184.32-30.72 266.24s-199.68 92.16-266.24 25.6l-399.36-399.36c-66.56-66.56-51.2-184.32 30.72-266.24s199.68-92.16 266.24-25.6l194.56 199.68c-10.24-51.2-5.12-102.4 20.48-148.48 56.32-117.76 199.68-168.96 317.44-117.76l-199.68 409.6 20.48 20.48 204.8-419.84c117.76 61.44 163.84 199.68 107.52 322.56zM327.68 556.111c-25.6-5.12-220.16-215.040-230.4-230.4-20.48-25.6-30.72-46.080-10.24-76.8 10.24-15.36-25.6 5.12-35.84 25.6-15.36 25.6-15.36 61.44 25.6 112.64l394.24 404.48c25.6 25.6 56.32 30.72 76.8 30.72 46.080 0 92.16-20.48 128-56.32 30.72-30.72 51.2-71.68 56.32-112.64 5.12-35.84-5.12-71.68-30.72-92.16l-189.44-189.44c5.12-5.12-163.84 189.44-184.32 184.32z" />
<glyph unicode="&#xe637;" d="M118.154 708.923h866.462c63.015 0 118.154 55.138 118.154 118.154s-55.138 118.154-118.154 118.154h-866.462c-63.015 0-118.154-55.138-118.154-118.154s55.138-118.154 118.154-118.154zM984.615 551.385h-866.462c-63.015 0-118.154-55.138-118.154-118.154s55.138-118.154 118.154-118.154h866.462c63.015 0 118.154 55.138 118.154 118.154s-55.138 118.154-118.154 118.154zM984.615 157.539h-866.462c-63.015 0-118.154-55.138-118.154-118.154s55.138-118.154 118.154-118.154h866.462c63.015 0 118.154 55.138 118.154 118.154s-55.138 118.154-118.154 118.154z" horiz-adv-x="1103" />
<glyph unicode="&#xe638;" d="M220.554 362.339c-126.031 0-220.554-102.4-220.554-220.554 0-126.031 94.523-220.554 220.554-220.554 118.154 0 220.554 94.523 220.554 220.554 0 118.154-102.4 220.554-220.554 220.554zM803.446 362.339c-118.154 0-220.554-94.523-220.554-220.554 0-118.154 94.523-220.554 220.554-220.554 118.154 0 220.554 94.523 220.554 220.554 0 118.154-94.523 220.554-220.554 220.554zM220.554 945.231c-126.031 0-220.554-94.523-220.554-220.554 0-118.154 94.523-220.554 220.554-220.554 118.154 0 220.554 94.523 220.554 220.554s-102.4 220.554-220.554 220.554zM803.446 504.123c118.154 0 220.554 94.523 220.554 220.554s-94.523 220.554-220.554 220.554c-118.154 0-220.554-94.523-220.554-220.554 0-118.154 102.4-220.554 220.554-220.554z" />
</font>
</defs>
</svg>
